<svg width="512" height="198" viewBox="0 0 512 198" fill="none" xmlns="http://www.w3.org/2000/svg">
<rect x="251" y="39" width="1" height="6" fill="white"/>
<rect x="251" y="39" width="1" height="6" fill="white"/>
<rect x="251" y="39" width="1" height="6" fill="white"/>
<rect x="251" y="39" width="1" height="6" fill="white"/>
<rect x="253" y="39" width="1" height="6" fill="white"/>
<rect x="253" y="39" width="1" height="6" fill="white"/>
<rect x="253" y="39" width="1" height="6" fill="white"/>
<rect x="253" y="39" width="1" height="6" fill="white"/>
<rect x="255" y="39" width="1" height="6" fill="white"/>
<rect x="255" y="39" width="1" height="6" fill="white"/>
<rect x="255" y="39" width="1" height="6" fill="white"/>
<rect x="255" y="39" width="1" height="6" fill="white"/>
<rect x="257" y="39" width="1" height="6" fill="white"/>
<rect x="257" y="39" width="1" height="6" fill="white"/>
<rect x="257" y="39" width="1" height="6" fill="white"/>
<rect x="257" y="39" width="1" height="6" fill="white"/>
<rect x="259" y="39" width="1" height="6" fill="white"/>
<rect x="259" y="39" width="1" height="6" fill="white"/>
<rect x="259" y="39" width="1" height="6" fill="white"/>
<rect x="259" y="39" width="1" height="6" fill="white"/>
<rect x="261" y="39" width="1" height="6" fill="white"/>
<rect x="261" y="39" width="1" height="6" fill="white"/>
<rect x="261" y="39" width="1" height="6" fill="white"/>
<rect x="261" y="39" width="1" height="6" fill="white"/>
<path d="M139.643 92.2H133.355V109H135.131V103.696H139.643C143.915 103.696 146.507 101.536 146.507 97.96C146.507 94.36 143.915 92.2 139.643 92.2ZM139.595 102.136H135.131V93.736H139.595C142.955 93.736 144.731 95.272 144.731 97.96C144.731 100.6 142.955 102.136 139.595 102.136ZM176.455 109H178.327L170.647 92.2H168.895L161.215 109H163.063L165.079 104.512H174.439L176.455 109ZM165.727 103.072L169.759 94.048L173.791 103.072H165.727ZM208.922 109L204.818 103.24C207.266 102.448 208.658 100.6 208.658 97.96C208.658 94.36 206.066 92.2 201.794 92.2H195.506V109H197.282V103.672H201.794C202.274 103.672 202.706 103.648 203.138 103.6L206.978 109H208.922ZM201.746 102.16H197.282V93.736H201.746C205.106 93.736 206.882 95.272 206.882 97.96C206.882 100.6 205.106 102.16 201.746 102.16ZM240.666 109L236.562 103.24C239.01 102.448 240.402 100.6 240.402 97.96C240.402 94.36 237.81 92.2 233.538 92.2H227.25V109H229.026V103.672H233.538C234.018 103.672 234.45 103.648 234.882 103.6L238.722 109H240.666ZM233.49 102.16H229.026V93.736H233.49C236.85 93.736 238.626 95.272 238.626 97.96C238.626 100.6 236.85 102.16 233.49 102.16ZM258.994 109H260.77V92.2H258.994V109ZM280.636 109H291.82V107.464H282.412V92.2H280.636V109ZM309.169 109H320.353V107.464H310.945V92.2H309.169V109ZM350.301 109H352.173L344.493 92.2H342.741L335.061 109H336.909L338.925 104.512H348.285L350.301 109ZM339.573 103.072L343.605 94.048L347.637 103.072H339.573ZM373.984 109.144C378.28 109.144 380.248 107.032 380.248 104.56C380.248 98.44 369.904 101.224 369.904 96.616C369.904 94.936 371.272 93.568 374.344 93.568C375.832 93.568 377.512 94.024 378.952 94.96L379.552 93.544C378.208 92.608 376.24 92.056 374.344 92.056C370.072 92.056 368.152 94.192 368.152 96.664C368.152 102.88 378.496 100.048 378.496 104.656C378.496 106.312 377.128 107.632 373.984 107.632C371.776 107.632 369.64 106.768 368.44 105.592L367.744 106.96C368.992 108.256 371.464 109.144 373.984 109.144Z" fill="white"/>
<path d="M231.446 62.37C231.446 60.79 230.376 59.7 228.896 59.7C227.416 59.7 226.326 60.81 226.326 62.37C226.326 63.93 227.446 65.05 229.086 65.05C229.916 65.05 230.646 64.75 231.116 64.19L230.716 63.73C230.316 64.19 229.746 64.42 229.106 64.42C227.956 64.42 227.116 63.69 227.036 62.59H231.436C231.436 62.51 231.446 62.43 231.446 62.37ZM228.896 60.31C229.926 60.31 230.676 61.03 230.766 62.06H227.036C227.126 61.03 227.876 60.31 228.896 60.31ZM237.301 65.05C238.671 65.05 239.471 64.46 239.471 63.55C239.471 61.53 236.061 62.6 236.061 61.18C236.061 60.68 236.481 60.31 237.431 60.31C237.971 60.31 238.521 60.44 238.981 60.76L239.291 60.19C238.851 59.89 238.111 59.7 237.431 59.7C236.091 59.7 235.351 60.34 235.351 61.2C235.351 63.28 238.761 62.2 238.761 63.57C238.761 64.09 238.351 64.43 237.351 64.43C236.611 64.43 235.901 64.17 235.481 63.84L235.161 64.4C235.591 64.77 236.431 65.05 237.301 65.05ZM246.304 64.17C246.104 64.35 245.814 64.44 245.524 64.44C244.934 64.44 244.614 64.1 244.614 63.48V60.34H246.214V59.74H244.614V58.59H243.904V59.74H242.964V60.34H243.904V63.52C243.904 64.49 244.454 65.05 245.444 65.05C245.854 65.05 246.274 64.93 246.554 64.68L246.304 64.17ZM251.014 65.05C251.304 65.05 251.554 64.81 251.554 64.5C251.554 64.19 251.304 63.96 251.014 63.96C250.724 63.96 250.484 64.19 250.484 64.5C250.484 64.81 250.724 65.05 251.014 65.05ZM255.046 58V58.64H256.696V65H257.416V58H255.046ZM264.269 57.94C262.909 57.94 261.879 58.78 261.879 60.09C261.879 61.37 262.849 62.19 264.239 62.19C265.209 62.19 266.029 61.76 266.379 60.99C266.399 61.2 266.409 61.4 266.409 61.56C266.409 63.46 265.439 64.43 263.929 64.43C263.409 64.43 262.929 64.34 262.569 64.1L262.279 64.68C262.719 64.95 263.309 65.06 263.939 65.06C265.839 65.06 267.139 63.82 267.139 61.44C267.139 59.23 266.129 57.94 264.269 57.94ZM264.349 61.58C263.269 61.58 262.589 60.99 262.589 60.07C262.589 59.14 263.289 58.55 264.299 58.55C265.509 58.55 266.149 59.28 266.149 60.05C266.149 60.92 265.419 61.58 264.349 61.58ZM273.363 57.94C272.003 57.94 270.973 58.78 270.973 60.09C270.973 61.37 271.943 62.19 273.333 62.19C274.303 62.19 275.123 61.76 275.473 60.99C275.493 61.2 275.503 61.4 275.503 61.56C275.503 63.46 274.533 64.43 273.023 64.43C272.503 64.43 272.023 64.34 271.663 64.1L271.373 64.68C271.813 64.95 272.403 65.06 273.033 65.06C274.933 65.06 276.233 63.82 276.233 61.44C276.233 59.23 275.223 57.94 273.363 57.94ZM273.443 61.58C272.363 61.58 271.683 60.99 271.683 60.07C271.683 59.14 272.383 58.55 273.393 58.55C274.603 58.55 275.243 59.28 275.243 60.05C275.243 60.92 274.513 61.58 273.443 61.58ZM284.287 61.33C285.007 61.05 285.407 60.52 285.407 59.79C285.407 58.65 284.417 57.94 282.937 57.94C281.457 57.94 280.487 58.65 280.487 59.79C280.487 60.52 280.877 61.05 281.587 61.33C280.717 61.62 280.237 62.21 280.237 63.05C280.237 64.29 281.257 65.06 282.937 65.06C284.607 65.06 285.657 64.29 285.657 63.05C285.657 62.22 285.167 61.62 284.287 61.33ZM281.207 59.81C281.207 59.03 281.877 58.55 282.937 58.55C283.987 58.55 284.677 59.03 284.677 59.82C284.677 60.58 284.027 61.07 282.937 61.07C281.847 61.07 281.207 60.58 281.207 59.81ZM282.937 64.45C281.697 64.45 280.967 63.91 280.967 63.04C280.967 62.18 281.697 61.64 282.937 61.64C284.177 61.64 284.917 62.18 284.917 63.04C284.917 63.91 284.177 64.45 282.937 64.45Z" fill="white"/>
<path d="M211.814 139H215.804C218.94 139 221.054 136.984 221.054 134.1C221.054 131.216 218.94 129.2 215.804 129.2H211.814V139ZM212.85 138.104V130.096H215.748C218.352 130.096 220.032 131.748 220.032 134.1C220.032 136.452 218.352 138.104 215.748 138.104H212.85ZM228.617 138.104V134.464H233.685V133.582H228.617V130.096H234.301V129.2H227.581V139H234.511V138.104H228.617ZM241.146 139H247.67V138.104H242.182V129.2H241.146V139ZM270.778 129.2L266.564 136.466L262.308 129.2H261.454V139H262.448V131.202L266.298 137.754H266.788L270.638 131.16V139H271.632V129.2H270.778ZM286.347 139H287.439L282.959 129.2H281.937L277.457 139H278.535L279.711 136.382H285.171L286.347 139ZM280.089 135.542L282.441 130.278L284.793 135.542H280.089ZM301.086 139L298.692 135.64C300.12 135.178 300.932 134.1 300.932 132.56C300.932 130.46 299.42 129.2 296.928 129.2H293.26V139H294.296V135.892H296.928C297.208 135.892 297.46 135.878 297.712 135.85L299.952 139H301.086ZM296.9 135.01H294.296V130.096H296.9C298.86 130.096 299.896 130.992 299.896 132.56C299.896 134.1 298.86 135.01 296.9 135.01Z" fill="white"/>
</svg>
